<mxfile host="app.diagrams.net" modified="2020-07-23T03:32:21.345Z" agent="5.0 (Macintosh)" etag="6y44rZmxi0AfUKRrDHfO" version="13.5.1" type="github">
  <diagram id="uCOfOXU_fJgu1riA34mX" name="Page-1">
    <mxGraphModel dx="786" dy="2251" grid="1" gridSize="12" guides="1" tooltips="1" connect="1" arrows="1" fold="1" page="1" pageScale="1" pageWidth="1100" pageHeight="1700" math="0" shadow="0">
      <root>
        <mxCell id="0" />
        <mxCell id="1" parent="0" />
        <mxCell id="1sICSZr1V_2gkbd4mbUe-7" style="edgeStyle=orthogonalEdgeStyle;rounded=0;orthogonalLoop=1;jettySize=auto;html=1;exitX=0.5;exitY=0;exitDx=0;exitDy=0;" edge="1" parent="1" source="1sICSZr1V_2gkbd4mbUe-1" target="1sICSZr1V_2gkbd4mbUe-2">
          <mxGeometry relative="1" as="geometry">
            <Array as="points">
              <mxPoint x="160" y="40" />
            </Array>
          </mxGeometry>
        </mxCell>
        <mxCell id="1sICSZr1V_2gkbd4mbUe-1" value="Admin" style="whiteSpace=wrap;html=1;aspect=fixed;" vertex="1" parent="1">
          <mxGeometry x="100" y="140" width="120" height="120" as="geometry" />
        </mxCell>
        <mxCell id="1sICSZr1V_2gkbd4mbUe-2" value="User" style="whiteSpace=wrap;html=1;aspect=fixed;" vertex="1" parent="1">
          <mxGeometry x="300" y="-10" width="120" height="120" as="geometry" />
        </mxCell>
        <mxCell id="1sICSZr1V_2gkbd4mbUe-3" style="edgeStyle=orthogonalEdgeStyle;rounded=0;orthogonalLoop=1;jettySize=auto;html=1;exitX=0.5;exitY=1;exitDx=0;exitDy=0;" edge="1" parent="1" source="1sICSZr1V_2gkbd4mbUe-2" target="1sICSZr1V_2gkbd4mbUe-2">
          <mxGeometry relative="1" as="geometry" />
        </mxCell>
        <mxCell id="1sICSZr1V_2gkbd4mbUe-4" value="Device" style="rounded=0;whiteSpace=wrap;html=1;" vertex="1" parent="1">
          <mxGeometry x="300" y="180" width="120" height="60" as="geometry" />
        </mxCell>
        <mxCell id="1sICSZr1V_2gkbd4mbUe-18" style="edgeStyle=orthogonalEdgeStyle;rounded=0;orthogonalLoop=1;jettySize=auto;html=1;exitX=0.5;exitY=1;exitDx=0;exitDy=0;entryX=0.5;entryY=0;entryDx=0;entryDy=0;" edge="1" parent="1" source="1sICSZr1V_2gkbd4mbUe-21" target="1sICSZr1V_2gkbd4mbUe-11">
          <mxGeometry relative="1" as="geometry" />
        </mxCell>
        <mxCell id="1sICSZr1V_2gkbd4mbUe-8" value="" style="endArrow=classic;html=1;" edge="1" parent="1" target="1sICSZr1V_2gkbd4mbUe-4">
          <mxGeometry width="50" height="50" relative="1" as="geometry">
            <mxPoint x="220" y="210" as="sourcePoint" />
            <mxPoint x="270" y="160" as="targetPoint" />
          </mxGeometry>
        </mxCell>
        <mxCell id="1sICSZr1V_2gkbd4mbUe-11" value="Use" style="rounded=1;whiteSpace=wrap;html=1;" vertex="1" parent="1">
          <mxGeometry x="550" y="300" width="120" height="60" as="geometry" />
        </mxCell>
        <mxCell id="1sICSZr1V_2gkbd4mbUe-12" value="Return" style="rounded=1;whiteSpace=wrap;html=1;" vertex="1" parent="1">
          <mxGeometry x="710" y="300" width="120" height="60" as="geometry" />
        </mxCell>
        <mxCell id="1sICSZr1V_2gkbd4mbUe-14" value="Waiting" style="rounded=1;whiteSpace=wrap;html=1;" vertex="1" parent="1">
          <mxGeometry x="360" y="300" width="120" height="60" as="geometry" />
        </mxCell>
        <mxCell id="1sICSZr1V_2gkbd4mbUe-15" value="" style="endArrow=classic;html=1;exitX=1;exitY=0.5;exitDx=0;exitDy=0;entryX=0;entryY=0.5;entryDx=0;entryDy=0;" edge="1" parent="1" source="1sICSZr1V_2gkbd4mbUe-4" target="1sICSZr1V_2gkbd4mbUe-21">
          <mxGeometry width="50" height="50" relative="1" as="geometry">
            <mxPoint x="280" y="290" as="sourcePoint" />
            <mxPoint x="330" y="240" as="targetPoint" />
          </mxGeometry>
        </mxCell>
        <mxCell id="1sICSZr1V_2gkbd4mbUe-16" value="" style="endArrow=classic;html=1;entryX=0.5;entryY=0;entryDx=0;entryDy=0;exitX=0.5;exitY=1;exitDx=0;exitDy=0;" edge="1" parent="1" source="1sICSZr1V_2gkbd4mbUe-21" target="1sICSZr1V_2gkbd4mbUe-14">
          <mxGeometry width="50" height="50" relative="1" as="geometry">
            <mxPoint x="280" y="290" as="sourcePoint" />
            <mxPoint x="330" y="240" as="targetPoint" />
            <Array as="points" />
          </mxGeometry>
        </mxCell>
        <mxCell id="1sICSZr1V_2gkbd4mbUe-21" value="Turn" style="rhombus;whiteSpace=wrap;html=1;" vertex="1" parent="1">
          <mxGeometry x="570" y="170" width="80" height="80" as="geometry" />
        </mxCell>
        <mxCell id="1sICSZr1V_2gkbd4mbUe-22" value="" style="endArrow=classic;html=1;entryX=0.5;entryY=0;entryDx=0;entryDy=0;" edge="1" parent="1" target="1sICSZr1V_2gkbd4mbUe-12">
          <mxGeometry width="50" height="50" relative="1" as="geometry">
            <mxPoint x="610" y="250" as="sourcePoint" />
            <mxPoint x="510" y="240" as="targetPoint" />
            <Array as="points" />
          </mxGeometry>
        </mxCell>
        <mxCell id="1sICSZr1V_2gkbd4mbUe-23" value="" style="endArrow=classic;html=1;" edge="1" parent="1" target="1sICSZr1V_2gkbd4mbUe-4">
          <mxGeometry width="50" height="50" relative="1" as="geometry">
            <mxPoint x="360" y="100" as="sourcePoint" />
            <mxPoint x="410" y="50" as="targetPoint" />
          </mxGeometry>
        </mxCell>
      </root>
    </mxGraphModel>
  </diagram>
</mxfile>
